# xmcd
#
# Track frame offsets: 
#        150
#        13522
#        34615
#        49807
#        62141
#        77169
#        88266
#        100353
#        115647
#        133986
#        145992
#        161308
#
# Disc length: 2362 seconds
#
# Revision: 1
# Processed by: cddbd v1.5.2PL0 Copyright (c) Steve Scherf et al.
# Submitted via: ExactAudioCopyFreeDBPlugin 1.0
#
DISCID=9e09380c
DTITLE=高凌风 - [1981] 不一样
DYEAR=1981
DGENRE=
TTITLE0=不一樣 (电影“蹦蹦一串心”插曲)
TTITLE1=惱人的秋風
TTITLE2=今夕明夕
TTITLE3=那一天
TTITLE4=遠方的故鄉
TTITLE5=愛說笑
TTITLE6=未曾把你忘記 (电影“蹦蹦一串心”插曲)
TTITLE7=遠方來的女孩(电影“蹦蹦一串心”插曲)
TTITLE8=我的爱像大海
TTITLE9=再相见
TTITLE10=自作多情
TTITLE11=柔情使我倾心
EXTD=
EXTT0=
EXTT1=
EXTT2=
EXTT3=
EXTT4=
EXTT5=
EXTT6=
EXTT7=
EXTT8=
EXTT9=
EXTT10=
EXTT11=
PLAYORDER=
